<?xml version="1.0" encoding="utf-8"?>
<!-- Generator: Adobe Illustrator 19.2.1, SVG Export Plug-In . SVG Version: 6.00 Build 0)  -->
<svg version="1.1" id="Слой_2" xmlns="http://www.w3.org/2000/svg" xmlns:xlink="http://www.w3.org/1999/xlink" x="0px" y="0px"
	 viewBox="0 0 129.8 133" style="enable-background:new 0 0 129.8 133;" xml:space="preserve">
<style type="text/css">
	.st0{fill:#50484F;}
	.st1{fill:url(#SVGID_1_);}
	.st2{fill:url(#SVGID_2_);}
	.st3{fill:none;stroke:#E2E2E2;stroke-miterlimit:10;}
	.st4{fill:url(#SVGID_4_);}
	.st5{display:none;}
	.st6{display:inline;fill:#50484F;}
	.st7{display:inline;fill:#D24A43;}
</style>
<g>
	<circle class="st0" cx="64.9" cy="67.4" r="63.2"/>
	<linearGradient id="SVGID_1_" gradientUnits="userSpaceOnUse" x1="64.9198" y1="63.4896" x2="64.9198" y2="0">
		<stop  offset="0" style="stop-color:#D24A43"/>
		<stop  offset="1" style="stop-color:#C2463E"/>
	</linearGradient>
	<path class="st1" d="M129.8,63.5C129.8,28.4,100.8,0,64.9,0S0,28.4,0,63.5H129.8z"/>
	<linearGradient id="SVGID_2_" gradientUnits="userSpaceOnUse" x1="64.9198" y1="133.0336" x2="64.9198" y2="69.544">
		<stop  offset="0" style="stop-color:#C8C8C8"/>
		<stop  offset="1" style="stop-color:#E5E5E5"/>
	</linearGradient>
	<path class="st2" d="M0,69.5C0,104.6,29.1,133,64.9,133s64.9-28.4,64.9-63.5H0z"/>
	<circle class="st0" cx="64.9" cy="67.4" r="21.7"/>
	<circle class="st3" cx="64.9" cy="67.6" r="13.1"/>
	<linearGradient id="SVGID_4_" gradientUnits="userSpaceOnUse" x1="64.9198" y1="78.4885" x2="64.9198" y2="56.6309">
		<stop  offset="0" style="stop-color:#C8C8C8"/>
		<stop  offset="1" style="stop-color:#E5E5E5"/>
	</linearGradient>
	<circle class="st4" cx="64.9" cy="67.6" r="10.9"/>
</g>
<g class="st5">
	<path class="st6" d="M160.3-34.1v-40h21.4c9.4,0,14.4,6.2,14.4,13.7c0,7.4-5,13.7-14.4,13.7h-9.2v12.6H160.3z M183.8-60.4
		c0-2.2-1.6-3.2-3.7-3.2h-7.7v6.3h7.7C182.1-57.3,183.8-58.3,183.8-60.4z"/>
	<path class="st6" d="M197.9-54.1c0-12.3,9.5-20.7,21.9-20.7s21.9,8.4,21.9,20.7c0,12.3-9.5,20.7-21.9,20.7S197.9-41.8,197.9-54.1z
		 M229.4-54.1c0-5.6-3.8-10-9.6-10c-5.8,0-9.6,4.4-9.6,10c0,5.6,3.8,10,9.6,10C225.6-44.1,229.4-48.5,229.4-54.1z"/>
	<path class="st6" d="M269.3-34.1l-9-14.1l-2.2,3v11.1H246v-40h12.1v15l10.5-15h14.8l-15.1,18.6l15.8,21.4H269.3z"/>
	<path class="st6" d="M286.2-34.1v-40h30.4v10.6h-18.2v4h17.8v10.6h-17.8v4.4h18.2v10.6H286.2z"/>
	<path class="st7" d="M319.8-54.1c0-12.3,9.5-20.7,21.9-20.7c12.4,0,21.9,8.4,21.9,20.7c0,12.3-9.5,20.7-21.9,20.7
		C329.4-33.4,319.8-41.8,319.8-54.1z M351.3-54.1c0-5.6-3.8-10-9.6-10c-5.8,0-9.6,4.4-9.6,10c0,5.6,3.8,10,9.6,10
		C347.6-44.1,351.3-48.5,351.3-54.1z"/>
	<path class="st7" d="M368-34.1v-40h21.4c9.4,0,14.4,6.2,14.4,13.7c0,7.4-5,13.7-14.4,13.7h-9.2v12.6H368z M391.4-60.4
		c0-2.2-1.6-3.2-3.7-3.2h-7.7v6.3h7.7C389.8-57.3,391.4-58.3,391.4-60.4z"/>
	<path class="st7" d="M407.7-34.1v-40H438v10.6h-18.2v4h17.8v10.6h-17.8v4.4H438v10.6H407.7z"/>
	<path class="st7" d="M470.3-34.1l-14.8-20.3v20.3h-12.1v-40h12.5l13.9,19v-19H482v40H470.3z"/>
</g>
</svg>
